<?xml version="1.0" standalone="no"?>
<!DOCTYPE svg PUBLIC "-//W3C//DTD SVG 20010904//EN"
 "http://www.w3.org/TR/2001/REC-SVG-20010904/DTD/svg10.dtd">
<svg version="1.0" xmlns="http://www.w3.org/2000/svg"
 width="253.000000pt" height="63.000000pt" viewBox="0 0 253.000000 63.000000"
 preserveAspectRatio="xMidYMid meet">

<g transform="translate(0.000000,63.000000) scale(0.100000,-0.100000)"
fill="#000000" stroke="none">
<path d="M1710 315 l0 -315 40 0 40 0 0 108 c0 93 3 111 18 125 10 10 22 17
26 17 15 0 106 67 99 73 -3 4 -1 7 5 7 9 0 12 37 12 129 0 128 0 130 -26 150
-23 18 -41 21 -120 21 l-94 0 0 -315z m160 137 c0 -75 -1 -78 -29 -95 -48 -28
-51 -24 -51 78 l0 95 40 0 40 0 0 -78z"/>
<path d="M1992 316 l0 -316 39 0 39 0 2 53 c1 28 2 81 2 116 1 78 17 88 39 24
9 -26 27 -79 41 -117 14 -38 26 -71 26 -72 0 -8 69 -4 73 3 3 5 -17 66 -43
138 l-47 130 34 32 35 31 -4 126 c-4 161 -3 160 -138 164 l-99 4 1 -316z m158
133 c0 -75 -1 -80 -25 -91 -14 -6 -25 -15 -25 -19 0 -5 -6 -6 -13 -3 -9 3 -13
32 -14 99 l-1 94 26 3 c49 6 52 1 52 -83z"/>
<path d="M2380 619 c0 -6 16 -29 35 -50 33 -37 35 -43 37 -117 7 -332 5 -345
-32 -350 -12 -2 -27 2 -31 10 -5 7 -9 106 -9 219 l0 206 -25 23 c-20 19 -27
21 -40 10 -12 -10 -14 -27 -10 -79 3 -36 5 -115 4 -176 -5 -246 -5 -238 19
-272 42 -60 135 -57 177 5 25 36 25 38 25 265 0 244 -4 268 -52 301 -26 18
-98 22 -98 5z"/>
</g>
</svg>
